<svg version="1.2" xmlns="http://www.w3.org/2000/svg" viewBox="0 0 859 359" width="859" height="359">
	<title>New Project</title>
	<style>
		.s0 { fill: #ffffff } 
	</style>
	<path id="PINE CITY MALL" class="s0" aria-label="PINE CITY MALL"  d="m90.5 221.5q-2.7 0-4.8-1.8-2-1.9-2-4.5v-46.2q0-4.3 2.8-7.1 2.7-2.6 7-2.6h15.2q9 0 14.8 5 6 5.1 6 13.5 0 9.2-5.8 14.9-5.9 5.7-14.9 5.7h-8.8q-3 0-3 3l0.3 13.8q0 2.6-2.1 4.5-2 1.8-4.7 1.8zm8.7-35.1h8q9.2 0 9.2-7.6 0-7.5-8.6-7.5h-8.6q-2.2 0-2.2 2.2v10.7q0 2.2 2.2 2.2zm48.3 35.1q-2.8 0-4.8-1.8-1.9-1.8-1.9-4.5v-50.3q0-2.8 1.9-4.6 2-1.8 4.8-1.8 3 0 4.8 1.8 2 1.8 2 4.6v50.3q0 2.9-2 4.6-1.8 1.7-4.8 1.7zm27.8 0q-3 0-5-1.7-1.8-1.7-1.8-4.6v-48.8q0-3.8 2.4-5.8 2.4-2.1 5.4-2.1 2.1 0 4 1.1 2 0.8 3.4 3l21.6 32.5q0.5 1.1 1.8 1.1 1.5 0 1.5-1.9l-1.1-29.5q-0.2-3 1.8-4.6 2-1.7 5-1.7 3 0 4.8 1.7 1.9 1.6 1.9 4.6v48.6q0 3.8-2.4 5.8-2.4 2.1-5.4 2.1-1.9 0-3.9-0.9-2-1-3.3-3.1l-21.4-33.6q-0.7-1-1.8-1-1.7 0-1.7 1.9l0.9 30.6q0.2 2.9-1.8 4.6-1.9 1.7-4.9 1.7zm92.6-1.5h-23.6q-4.4 0-7.1-2.7-2.7-2.7-2.7-7.1v-41.6q0-4.4 2.6-6.8 2.5-2.6 6.7-2.6h22.6q6.4 0 6.4 6 0 2.6-1.9 4.4-1.8 1.6-4.5 1.6h-15.4q-3 0-3 3v6q0 3 3 3h13.2q3 0 4.7 1.7 1.6 1.7 1.6 4.3 0 2.5-1.9 4.2-1.8 1.8-4.4 1.8h-13.2q-3 0-3 3v6.6q0 3 3 3h16.9q2.9 0 4.5 1.7 1.9 1.7 1.9 4.5 0 2.6-1.9 4.3-1.8 1.7-4.5 1.7zm96.4-4.1q-2.9 2.3-8.7 3.9-5.9 1.7-11.5 1.7-9.2 0-16.6-4.1-7.4-4.2-11.6-11.5-4.1-7.3-4.1-16.7 0-9.7 4-16.8 4.2-7 11.6-10.7 7.3-4 17-4 4.1 0 8.2 0.8 4.2 0.7 7.6 2.4 1.8 0.9 2.6 2.4 0.8 1.4 0.8 3 0 2.4-1.7 4.5-1.7 1.9-4.5 1.9-1.3 0-2.6-0.4-2.7-1.1-5.9-1.6-3.1-0.8-5.5-0.8-7.8 0-13 5.3-5.1 5.2-5.1 14 0 9.5 5.2 14.9 5.4 5.4 13.8 5.4 3.5 0 7.3-1.2 4-1.2 6.3-3 1.7-1.1 3.7-1.1 2.5 0 4 1.9 1.7 1.6 1.7 4.1 0 3.4-3 5.7zm20.2 5.6q-2.9 0-4.8-1.8-1.9-1.8-1.9-4.5v-50.3q0-2.8 1.9-4.6 1.9-1.8 4.8-1.8 3 0 4.8 1.8 2 1.8 2 4.6v50.3q0 2.9-2 4.6-1.8 1.7-4.8 1.7zm40.5 0q-2.9 0-4.8-1.7-1.9-1.7-1.9-4.6v-39.1q0-4.5-4.5-4.5h-7.4q-2.7 0-4.5-1.7-1.6-1.8-1.6-4.5 0-2.7 1.6-4.3 1.8-1.9 4.5-1.9h37q2.9 0 4.5 1.9 1.9 1.6 1.9 4.3 0 2.7-1.9 4.5-1.6 1.7-4.5 1.7h-7.1q-4.5 0-4.5 4.5v39.1q0 2.9-2 4.6-1.8 1.7-4.8 1.7zm55.5 0q-2.9 0-4.8-1.7-1.9-1.7-1.9-4.6v-15.8q0-1.6-0.4-3.1-0.1-1.6-1.1-3.1l-16.9-24.2q-1.1-1.9-1.1-3.6 0-2.8 2.1-4.8 2-2.1 4.9-2.1 3.6 0 5.4 3l11.1 17.6q1.3 2.1 2.8 2.1 1.5 0 2.9-2.1l10.8-17.6q1.8-3 5.4-3 3 0 4.9 2.1 2.2 2 2.2 4.8 0 1.7-1.2 3.6l-16.9 24.2q-1 1.5-1.3 3.1-0.2 1.5-0.2 3.1v15.8q0 2.9-1.9 4.6-1.8 1.7-4.8 1.7zm70.4 0q-3 0-5.2-2.3-1.9-2.2-1.5-5.2l6.3-48.2q0.5-3.2 2.7-5.2 2.3-2.1 5.4-2.1 6.5 0 8.4 5.6l10.2 29.3q0.8 1.5 1.5 1.5 1.1 0 1.5-1.5l10.3-29.3q1.9-5.6 8.2-5.6 3.4 0 5.5 2.1 2.3 2 2.8 5.2l6.2 48.2q0.5 3-1.6 5.2-2 2.3-5 2.3-2.6 0-4.6-1.7-1.8-1.7-2.1-4.5l-2.3-31.3q-0.1-1.8-1.1-1.8-1.1 0-1.5 1.5l-8.8 24.5q-2.1 5.5-7.5 5.5-2.1 0-4.2-1.5-1.9-1.5-3.1-3.9l-8.7-24.3q-0.5-1.3-1.5-1.3-0.9 0-1.2 1.7l-2.4 30.9q-0.1 2.8-2.1 4.5-2 1.7-4.6 1.7zm75.8 0q-2.3 0-4.6-1.8-2.1-1.8-2.1-4.6 0-1.3 0.5-2.6l18.9-49.3q1-2.8 3.4-4.1 2.4-1.4 4.9-1.4 2.8 0 5.2 1.4 2.5 1.3 3.6 4.1l20.2 49q0.3 0.6 0.3 1.2 0 0.6 0 1.2 0 3.1-2.1 5-2.1 1.7-4.7 1.7-1.7 0-3.6-0.9-1.6-1-2.4-3.1l-4.3-11.7q-0.2-0.9-1.2-0.9h-20.2q-1.1 0-1.4 0.9l-4.2 11.8q-1 2-2.7 3-1.7 1.1-3.5 1.1zm17.2-28.5h8.8q0.9 0 1.3-0.6 0.6-0.7 0.4-1.8l-3.9-10.7q-1-2.3-2.3-2.3-1.3 0-2.2 2.5l-3.8 10.6q-0.3 1 0.2 1.7 0.4 0.6 1.5 0.6zm73.5 27h-21.7q-4.3 0-7-2.7-2.7-2.7-2.7-7.1v-45.3q0-2.8 2-4.6 1.9-1.8 4.9-1.8 2.8 0 4.6 1.8 2 1.8 2 4.6v38.3q0 4.5 4.5 4.5h13.4q2.6 0 4.3 1.8 1.8 1.7 1.8 4.3 0 2.8-1.8 4.5-1.7 1.7-4.3 1.7zm47.2 0h-21.6q-4.4 0-7-2.7-2.8-2.7-2.8-7.1v-45.3q0-2.8 2-4.6 1.9-1.8 4.9-1.8 2.9 0 4.7 1.8 1.9 1.8 1.9 4.6v38.3q0 4.5 4.5 4.5h13.4q2.7 0 4.4 1.8 1.7 1.7 1.7 4.3 0 2.8-1.7 4.5-1.7 1.7-4.4 1.7z"/>
</svg>